<svg xmlns="http://www.w3.org/2000/svg" viewBox="0 0 3840 2161">
<rect width="3840" height="2161" fill="white"/>
<path d="M 1874.000,35.000 L 1873.000,36.000 L 1855.000,36.000 L 1854.000,37.000 L 1840.000,37.000 L 1839.000,38.000 L 1828.000,38.000 L 1827.000,39.000 L 1817.000,39.000 L 1816.000,40.000 L 1807.000,40.000 L 1806.000,41.000 L 1798.000,41.000 L 1797.000,42.000 L 1789.000,42.000 L 1788.000,43.000 L 1782.000,43.000 L 1781.000,44.000 L 1774.000,44.000 L 1773.000,45.000 L 1767.000,45.000 L 1766.000,46.000 L 1761.000,46.000 L 1760.000,47.000 L 1755.000,47.000 L 1754.000,48.000 L 1749.000,48.000 L 1748.000,49.000 L 1743.000,49.000 L 1742.000,50.000 L 1731.000,51.000 L 1730.000,52.000 L 1726.000,52.000 L 1725.000,53.000 L 1720.000,53.000 L 1719.000,54.000 L 1715.000,54.000 L 1714.000,55.000 L 1710.000,55.000 L 1709.000,56.000 L 1705.000,56.000 L 1704.000,57.000 L 1695.000,58.000 L 1694.000,59.000 L 1691.000,59.000 L 1690.000,60.000 L 1686.000,60.000 L 1685.000,61.000 L 1682.000,61.000 L 1681.000,62.000 L 1678.000,62.000 L 1677.000,63.000 L 1674.000,63.000 A 7.295 7.295 0 0 1 1665.000 66.000 L 1662.000,66.000 L 1661.000,67.000 L 1658.000,67.000 L 1657.000,68.000 L 1654.000,68.000 A 11.844 11.844 0 0 1 1642.000 72.000 L 1639.000,72.000 A 13.029 13.029 0 0 0 1628.000 75.000 A 10.158 10.158 0 0 1 1618.000 78.000 A 10.158 10.158 0 0 1 1608.000 81.000 L 1607.000,82.000 L 1605.000,82.000 L 1604.000,83.000 L 1602.000,83.000 L 1601.000,84.000 L 1599.000,84.000 L 1598.000,85.000 L 1596.000,85.000 L 1595.000,86.000 L 1593.000,86.000 L 1592.000,87.000 L 1590.000,87.000 L 1589.000,88.000 L 1587.000,88.000 L 1586.000,89.000 L 1584.000,89.000 L 1583.000,90.000 L 1581.000,90.000 L 1580.000,91.000 L 1578.000,91.000 L 1577.000,92.000 L 1575.000,92.000 L 1574.000,93.000 L 1572.000,93.000 L 1571.000,94.000 L 1569.000,94.000 A 11.787 11.787 0 0 1 1557.000 99.000 A 35.646 35.646 0 0 1 1539.000 106.000 A 18.231 18.231 0 0 1 1526.000 111.000 L 1524.000,111.000 L 1521.000,113.000 L 1519.000,113.000 L 1516.000,115.000 L 1514.000,115.000 L 1511.000,117.000 L 1509.000,117.000 L 1491.000,126.000 L 1489.000,126.000 L 1482.000,130.000 L 1480.000,130.000 L 1469.000,136.000 A 54.189 54.189 0 0 1 1431.000 155.000 L 1418.000,161.000 L 1416.000,163.000 L 1411.000,165.000 L 1409.000,167.000 L 1393.000,175.000 L 1391.000,177.000 L 1388.000,178.000 L 1386.000,180.000 L 1383.000,181.000 L 1381.000,183.000 L 1378.000,184.000 A 19.194 19.194 0 0 1 1363.000 194.000 L 1360.000,195.000 L 1355.000,199.000 A 11.168 11.168 0 0 1 1347.000 204.000 L 1346.000,204.000 L 1344.000,206.000 L 1343.000,206.000 L 1341.000,208.000 L 1340.000,208.000 L 1338.000,210.000 L 1337.000,210.000 L 1335.000,212.000 L 1334.000,212.000 L 1332.000,214.000 A 18.213 18.213 0 0 1 1319.000 223.000 A 18.213 18.213 0 0 1 1306.000 232.000 A 22.113 22.113 0 0 0 1294.000 241.000 A 21.721 21.721 0 0 1 1283.000 249.000 L 1282.000,249.000 L 1279.000,252.000 L 1278.000,252.000 L 1274.000,256.000 L 1273.000,256.000 L 1270.000,259.000 L 1269.000,259.000 L 1264.000,264.000 L 1263.000,264.000 L 1260.000,267.000 L 1259.000,267.000 L 1254.000,272.000 L 1253.000,272.000 L 1242.000,282.000 L 1241.000,282.000 L 1236.000,287.000 L 1235.000,287.000 L 1230.000,292.000 L 1229.000,292.000 L 1212.000,308.000 L 1211.000,308.000 L 1198.000,321.000 A 43.503 43.503 0 0 1 1154.000 365.000 L 1141.000,378.000 L 1141.000,379.000 L 1125.000,396.000 L 1125.000,397.000 A 65.374 65.374 0 0 1 1104.000 422.000 L 1088.000,441.000 L 1088.000,442.000 L 1085.000,445.000 L 1085.000,446.000 L 1082.000,449.000 L 1082.000,450.000 A 40.166 40.166 0 0 1 1070.000 466.000 L 1067.000,469.000 A 24.833 24.833 0 0 1 1057.000 483.000 A 18.213 18.213 0 0 0 1048.000 496.000 A 26.651 26.651 0 0 1 1035.000 517.000 L 1029.000,525.000 L 1028.000,528.000 L 1022.000,536.000 L 1021.000,539.000 L 1016.000,546.000 L 1014.000,551.000 L 1012.000,553.000 L 1011.000,556.000 L 1006.000,563.000 L 1004.000,568.000 L 1002.000,570.000 L 992.000,590.000 A 81.282 81.282 0 0 1 964.000 646.000 L 959.000,655.000 L 959.000,657.000 L 955.000,664.000 L 955.000,666.000 L 952.000,671.000 L 952.000,673.000 L 948.000,680.000 L 948.000,682.000 L 946.000,685.000 L 946.000,687.000 L 944.000,690.000 L 944.000,692.000 L 942.000,695.000 A 15.048 15.048 0 0 1 937.000 710.000 L 935.000,713.000 L 934.000,718.000 L 932.000,721.000 L 931.000,726.000 L 927.000,734.000 L 927.000,737.000 A 8.373 8.373 0 0 1 924.000 745.000 L 923.000,746.000 L 923.000,748.000 L 922.000,749.000 L 922.000,751.000 L 921.000,752.000 L 921.000,754.000 L 920.000,755.000 L 920.000,757.000 L 919.000,758.000 A 6.024 6.024 0 0 1 917.000 767.000 L 916.000,768.000 L 916.000,770.000 L 915.000,771.000 L 915.000,773.000 L 914.000,774.000 A 6.024 6.024 0 0 1 912.000 783.000 L 911.000,784.000 A 6.024 6.024 0 0 1 909.000 793.000 L 908.000,794.000 A 6.024 6.024 0 0 1 906.000 803.000 A 6.035 6.035 0 0 0 903.000 811.000 L 903.000,814.000 L 902.000,815.000 L 902.000,818.000 L 901.000,819.000 L 901.000,822.000 L 900.000,823.000 L 900.000,826.000 L 899.000,827.000 L 899.000,830.000 L 898.000,831.000 L 898.000,834.000 L 897.000,835.000 L 897.000,838.000 L 896.000,839.000 L 896.000,842.000 L 895.000,843.000 L 895.000,847.000 L 894.000,848.000 L 894.000,851.000 L 893.000,852.000 L 893.000,855.000 L 892.000,856.000 L 892.000,859.000 L 891.000,860.000 L 890.000,869.000 L 889.000,870.000 L 889.000,873.000 L 888.000,874.000 L 888.000,878.000 L 887.000,879.000 L 887.000,883.000 L 886.000,884.000 L 886.000,888.000 L 885.000,889.000 L 885.000,894.000 L 884.000,895.000 L 884.000,899.000 L 883.000,900.000 L 883.000,905.000 L 882.000,906.000 L 882.000,911.000 L 881.000,912.000 L 881.000,917.000 L 880.000,918.000 L 880.000,923.000 L 879.000,924.000 L 879.000,930.000 L 878.000,931.000 L 878.000,937.000 L 877.000,938.000 L 877.000,945.000 L 876.000,946.000 L 876.000,952.000 L 875.000,953.000 L 875.000,960.000 L 874.000,961.000 L 874.000,968.000 L 873.000,969.000 L 873.000,977.000 L 872.000,978.000 L 871.000,998.000 L 870.000,999.000 L 870.000,1011.000 L 869.000,1012.000 L 869.000,1027.000 L 868.000,1028.000 L 868.000,1048.000 L 867.000,1049.000 L 868.000,1050.000 A 52.331 52.331 0 0 1 868.000 1125.000 L 867.000,1126.000 L 868.000,1127.000 L 868.000,1146.000 L 869.000,1147.000 L 869.000,1162.000 L 870.000,1163.000 L 870.000,1175.000 L 871.000,1176.000 L 871.000,1186.000 L 872.000,1187.000 L 872.000,1196.000 L 873.000,1197.000 L 873.000,1205.000 L 874.000,1206.000 L 874.000,1214.000 L 875.000,1215.000 L 876.000,1230.000 L 877.000,1231.000 L 877.000,1236.000 L 878.000,1237.000 L 878.000,1243.000 L 879.000,1244.000 L 879.000,1250.000 L 880.000,1251.000 L 880.000,1256.000 L 881.000,1257.000 L 882.000,1269.000 L 883.000,1270.000 L 884.000,1280.000 L 885.000,1281.000 L 885.000,1285.000 L 886.000,1286.000 L 886.000,1291.000 L 887.000,1292.000 L 888.000,1301.000 L 889.000,1302.000 L 890.000,1310.000 L 891.000,1311.000 L 891.000,1314.000 L 892.000,1315.000 L 892.000,1319.000 L 893.000,1320.000 L 893.000,1323.000 L 894.000,1324.000 L 894.000,1327.000 L 895.000,1328.000 L 895.000,1331.000 L 896.000,1332.000 L 896.000,1336.000 L 897.000,1337.000 L 897.000,1340.000 L 898.000,1341.000 L 898.000,1344.000 L 899.000,1345.000 L 899.000,1348.000 L 900.000,1349.000 L 900.000,1352.000 L 901.000,1353.000 L 901.000,1356.000 A 11.844 11.844 0 0 1 905.000 1368.000 L 905.000,1371.000 L 907.000,1375.000 L 907.000,1378.000 A 10.158 10.158 0 0 1 910.000 1388.000 L 911.000,1389.000 A 6.024 6.024 0 0 0 913.000 1398.000 L 914.000,1399.000 L 914.000,1401.000 L 915.000,1402.000 L 915.000,1404.000 L 916.000,1405.000 L 916.000,1407.000 L 917.000,1408.000 A 6.024 6.024 0 0 0 919.000 1417.000 L 920.000,1418.000 L 920.000,1420.000 L 921.000,1421.000 L 921.000,1423.000 L 922.000,1424.000 L 922.000,1426.000 A 11.787 11.787 0 0 1 927.000 1438.000 L 928.000,1443.000 L 930.000,1446.000 L 932.000,1454.000 L 936.000,1462.000 A 27.323 27.323 0 0 0 942.000 1478.000 L 942.000,1480.000 L 944.000,1483.000 L 944.000,1485.000 L 947.000,1490.000 L 947.000,1492.000 L 953.000,1504.000 L 953.000,1506.000 L 956.000,1511.000 L 956.000,1513.000 L 960.000,1520.000 L 960.000,1522.000 L 965.000,1531.000 A 69.241 69.241 0 0 1 989.000 1579.000 L 996.000,1594.000 L 998.000,1596.000 L 1000.000,1601.000 A 19.319 19.319 0 0 1 1010.000 1617.000 L 1015.000,1627.000 A 35.440 35.440 0 0 1 1027.000 1645.000 L 1028.000,1648.000 L 1032.000,1653.000 A 11.168 11.168 0 0 1 1037.000 1661.000 L 1037.000,1662.000 L 1039.000,1664.000 L 1039.000,1665.000 L 1041.000,1667.000 L 1041.000,1668.000 L 1043.000,1670.000 L 1043.000,1671.000 L 1045.000,1673.000 L 1045.000,1674.000 L 1047.000,1676.000 A 18.213 18.213 0 0 1 1056.000 1689.000 L 1060.000,1696.000 L 1063.000,1699.000 A 21.721 21.721 0 0 1 1071.000 1710.000 A 21.721 21.721 0 0 1 1079.000 1721.000 L 1079.000,1722.000 L 1082.000,1725.000 L 1082.000,1726.000 L 1086.000,1730.000 L 1086.000,1731.000 L 1089.000,1734.000 L 1089.000,1735.000 L 1093.000,1739.000 L 1093.000,1740.000 L 1097.000,1744.000 L 1097.000,1745.000 L 1101.000,1749.000 L 1101.000,1750.000 L 1105.000,1754.000 L 1105.000,1755.000 L 1110.000,1760.000 L 1110.000,1761.000 L 1115.000,1766.000 L 1115.000,1767.000 L 1121.000,1773.000 L 1121.000,1774.000 L 1128.000,1781.000 L 1128.000,1782.000 L 1135.000,1789.000 L 1135.000,1790.000 L 1146.000,1801.000 L 1146.000,1802.000 L 1159.000,1815.000 A 53.905 53.905 0 0 1 1193.000 1849.000 L 1193.000,1850.000 L 1194.000,1850.000 L 1206.000,1862.000 L 1207.000,1862.000 L 1217.000,1872.000 L 1218.000,1872.000 L 1240.000,1892.000 L 1241.000,1892.000 L 1252.000,1902.000 L 1253.000,1902.000 L 1272.000,1918.000 L 1273.000,1918.000 L 1276.000,1921.000 L 1277.000,1921.000 A 37.551 37.551 0 0 0 1293.000 1934.000 A 33.672 33.672 0 0 1 1311.000 1947.000 A 16.094 16.094 0 0 1 1321.000 1954.000 A 18.213 18.213 0 0 0 1334.000 1963.000 A 10.468 10.468 0 0 1 1343.000 1968.000 L 1354.000,1976.000 L 1357.000,1977.000 L 1365.000,1983.000 A 34.815 34.815 0 0 1 1385.000 1994.000 A 34.870 34.870 0 0 0 1404.000 2006.000 L 1411.000,2009.000 L 1413.000,2011.000 L 1426.000,2017.000 A 75.261 75.261 0 0 1 1478.000 2043.000 L 1487.000,2048.000 L 1489.000,2048.000 L 1494.000,2051.000 L 1496.000,2051.000 L 1512.000,2059.000 L 1514.000,2059.000 L 1517.000,2061.000 L 1519.000,2061.000 L 1522.000,2063.000 A 15.048 15.048 0 0 1 1537.000 2068.000 L 1540.000,2070.000 A 35.646 35.646 0 0 0 1558.000 2077.000 L 1560.000,2077.000 A 8.153 8.153 0 0 0 1569.000 2081.000 L 1571.000,2081.000 L 1572.000,2082.000 L 1574.000,2082.000 L 1575.000,2083.000 L 1577.000,2083.000 L 1578.000,2084.000 L 1580.000,2084.000 L 1581.000,2085.000 L 1583.000,2085.000 L 1584.000,2086.000 L 1586.000,2086.000 L 1587.000,2087.000 A 6.024 6.024 0 0 1 1596.000 2089.000 L 1597.000,2090.000 L 1599.000,2090.000 L 1600.000,2091.000 L 1602.000,2091.000 L 1603.000,2092.000 L 1605.000,2092.000 L 1606.000,2093.000 L 1608.000,2093.000 L 1609.000,2094.000 A 6.024 6.024 0 0 1 1618.000 2096.000 L 1619.000,2097.000 A 6.024 6.024 0 0 1 1628.000 2099.000 L 1632.000,2101.000 L 1639.000,2102.000 A 13.029 13.029 0 0 1 1650.000 2105.000 L 1651.000,2106.000 L 1654.000,2106.000 L 1655.000,2107.000 L 1658.000,2107.000 L 1659.000,2108.000 L 1662.000,2108.000 L 1663.000,2109.000 L 1666.000,2109.000 L 1667.000,2110.000 L 1670.000,2110.000 L 1671.000,2111.000 L 1674.000,2111.000 L 1675.000,2112.000 L 1678.000,2112.000 L 1679.000,2113.000 L 1682.000,2113.000 L 1683.000,2114.000 L 1687.000,2114.000 L 1688.000,2115.000 L 1691.000,2115.000 L 1692.000,2116.000 L 1695.000,2116.000 L 1696.000,2117.000 L 1700.000,2117.000 L 1701.000,2118.000 L 1705.000,2118.000 L 1706.000,2119.000 L 1710.000,2119.000 L 1711.000,2120.000 L 1715.000,2120.000 L 1716.000,2121.000 L 1720.000,2121.000 L 1721.000,2122.000 L 1726.000,2122.000 L 1727.000,2123.000 L 1731.000,2123.000 L 1732.000,2124.000 L 1737.000,2124.000 L 1738.000,2125.000 L 1743.000,2125.000 L 1744.000,2126.000 L 1755.000,2127.000 L 1756.000,2128.000 L 1762.000,2128.000 L 1763.000,2129.000 L 1769.000,2129.000 L 1770.000,2130.000 L 1777.000,2130.000 L 1778.000,2131.000 L 1783.000,2131.000 L 1784.000,2132.000 L 1792.000,2132.000 L 1793.000,2133.000 L 1799.000,2133.000 L 1800.000,2134.000 L 1809.000,2134.000 L 1810.000,2135.000 L 1818.000,2135.000 L 1819.000,2136.000 L 1830.000,2136.000 L 1831.000,2137.000 L 1842.000,2137.000 L 1843.000,2138.000 L 1858.000,2138.000 L 1859.000,2139.000 L 1878.000,2139.000 L 1879.000,2140.000 L 1880.000,2139.000 A 55.159 55.159 0 0 1 1959.000 2139.000 L 1960.000,2140.000 L 1961.000,2139.000 L 1980.000,2139.000 L 1981.000,2138.000 L 2009.000,2137.000 L 2010.000,2136.000 L 2020.000,2136.000 L 2021.000,2135.000 L 2030.000,2135.000 L 2031.000,2134.000 L 2047.000,2133.000 L 2048.000,2132.000 L 2062.000,2131.000 L 2063.000,2130.000 L 2069.000,2130.000 L 2070.000,2129.000 L 2076.000,2129.000 L 2077.000,2128.000 L 2083.000,2128.000 L 2084.000,2127.000 L 2089.000,2127.000 L 2090.000,2126.000 L 2095.000,2126.000 L 2096.000,2125.000 L 2107.000,2124.000 L 2108.000,2123.000 L 2118.000,2122.000 L 2119.000,2121.000 L 2123.000,2121.000 L 2124.000,2120.000 L 2128.000,2120.000 L 2129.000,2119.000 L 2133.000,2119.000 L 2134.000,2118.000 L 2143.000,2117.000 L 2144.000,2116.000 L 2147.000,2116.000 L 2148.000,2115.000 L 2152.000,2115.000 L 2153.000,2114.000 L 2156.000,2114.000 L 2157.000,2113.000 L 2160.000,2113.000 L 2161.000,2112.000 L 2164.000,2112.000 L 2165.000,2111.000 L 2168.000,2111.000 L 2169.000,2110.000 L 2172.000,2110.000 L 2173.000,2109.000 L 2176.000,2109.000 L 2177.000,2108.000 L 2180.000,2108.000 L 2181.000,2107.000 L 2184.000,2107.000 L 2185.000,2106.000 L 2188.000,2106.000 L 2189.000,2105.000 L 2192.000,2105.000 L 2193.000,2104.000 L 2200.000,2103.000 A 10.710 10.710 0 0 1 2211.000 2099.000 L 2214.000,2099.000 L 2215.000,2098.000 A 6.024 6.024 0 0 0 2224.000 2096.000 L 2225.000,2095.000 L 2227.000,2095.000 L 2228.000,2094.000 L 2230.000,2094.000 L 2231.000,2093.000 L 2233.000,2093.000 L 2234.000,2092.000 L 2236.000,2092.000 L 2237.000,2091.000 A 6.024 6.024 0 0 0 2246.000 2089.000 L 2247.000,2088.000 L 2249.000,2088.000 L 2250.000,2087.000 L 2252.000,2087.000 L 2253.000,2086.000 L 2255.000,2086.000 L 2256.000,2085.000 L 2258.000,2085.000 L 2259.000,2084.000 L 2261.000,2084.000 L 2262.000,2083.000 L 2264.000,2083.000 A 11.787 11.787 0 0 1 2276.000 2078.000 A 35.646 35.646 0 0 1 2294.000 2071.000 A 27.342 27.342 0 0 1 2310.000 2065.000 L 2312.000,2065.000 L 2315.000,2063.000 L 2317.000,2063.000 L 2320.000,2061.000 L 2322.000,2061.000 L 2325.000,2059.000 L 2327.000,2059.000 L 2334.000,2055.000 L 2336.000,2055.000 L 2350.000,2048.000 L 2352.000,2048.000 L 2361.000,2043.000 A 75.261 75.261 0 0 1 2413.000 2017.000 L 2426.000,2011.000 A 31.769 31.769 0 0 1 2449.000 1997.000 L 2454.000,1995.000 L 2456.000,1993.000 L 2459.000,1992.000 A 19.194 19.194 0 0 1 2474.000 1982.000 L 2477.000,1981.000 L 2482.000,1977.000 L 2485.000,1976.000 L 2490.000,1972.000 A 11.168 11.168 0 0 1 2498.000 1967.000 A 18.213 18.213 0 0 1 2511.000 1958.000 A 18.213 18.213 0 0 1 2524.000 1949.000 A 17.458 17.458 0 0 0 2535.000 1942.000 L 2542.000,1936.000 A 21.721 21.721 0 0 1 2553.000 1928.000 L 2554.000,1928.000 L 2557.000,1925.000 L 2558.000,1925.000 L 2562.000,1921.000 L 2563.000,1921.000 L 2566.000,1918.000 L 2567.000,1918.000 L 2570.000,1915.000 L 2571.000,1915.000 L 2580.000,1907.000 L 2581.000,1907.000 L 2586.000,1902.000 L 2587.000,1902.000 L 2592.000,1897.000 L 2593.000,1897.000 L 2598.000,1892.000 L 2599.000,1892.000 L 2605.000,1886.000 L 2606.000,1886.000 L 2621.000,1872.000 L 2622.000,1872.000 L 2647.000,1848.000 A 31.504 31.504 0 0 1 2679.000 1816.000 A 16.382 16.382 0 0 1 2694.000 1800.000 L 2704.000,1790.000 L 2704.000,1789.000 L 2712.000,1781.000 L 2712.000,1780.000 L 2724.000,1767.000 L 2724.000,1766.000 L 2734.000,1755.000 L 2734.000,1754.000 L 2750.000,1735.000 L 2750.000,1734.000 L 2753.000,1731.000 L 2753.000,1730.000 L 2756.000,1727.000 L 2756.000,1726.000 A 40.166 40.166 0 0 1 2768.000 1710.000 L 2774.000,1703.000 L 2776.000,1699.000 L 2779.000,1696.000 A 28.039 28.039 0 0 1 2788.000 1683.000 L 2788.000,1682.000 L 2790.000,1680.000 L 2790.000,1679.000 L 2792.000,1677.000 L 2792.000,1676.000 L 2808.000,1653.000 A 27.755 27.755 0 0 1 2819.000 1634.000 L 2824.000,1627.000 L 2826.000,1622.000 L 2828.000,1620.000 L 2829.000,1617.000 A 45.709 45.709 0 0 0 2844.000 1592.000 L 2850.000,1579.000 A 69.241 69.241 0 0 1 2874.000 1531.000 L 2879.000,1522.000 L 2879.000,1520.000 L 2883.000,1513.000 L 2883.000,1511.000 L 2886.000,1506.000 L 2886.000,1504.000 L 2890.000,1497.000 L 2890.000,1495.000 L 2892.000,1492.000 L 2892.000,1490.000 L 2895.000,1485.000 A 15.048 15.048 0 0 1 2900.000 1470.000 L 2902.000,1467.000 L 2903.000,1462.000 L 2905.000,1459.000 L 2906.000,1454.000 L 2908.000,1451.000 A 11.286 11.286 0 0 1 2912.000 1440.000 A 29.360 29.360 0 0 1 2918.000 1423.000 L 2918.000,1420.000 L 2919.000,1419.000 L 2919.000,1417.000 L 2920.000,1416.000 L 2920.000,1414.000 L 2921.000,1413.000 L 2921.000,1411.000 L 2922.000,1410.000 A 6.024 6.024 0 0 1 2924.000 1401.000 L 2925.000,1400.000 L 2925.000,1398.000 L 2926.000,1397.000 L 2926.000,1395.000 L 2927.000,1394.000 L 2927.000,1392.000 L 2928.000,1391.000 A 6.024 6.024 0 0 1 2930.000 1382.000 A 10.710 10.710 0 0 0 2934.000 1371.000 L 2935.000,1364.000 A 13.029 13.029 0 0 1 2938.000 1353.000 L 2939.000,1352.000 L 2939.000,1349.000 L 2940.000,1348.000 L 2940.000,1345.000 L 2941.000,1344.000 L 2941.000,1341.000 L 2942.000,1340.000 L 2942.000,1336.000 L 2943.000,1335.000 L 2943.000,1332.000 L 2944.000,1331.000 L 2944.000,1328.000 L 2945.000,1327.000 L 2945.000,1324.000 L 2946.000,1323.000 L 2946.000,1319.000 L 2947.000,1318.000 L 2947.000,1315.000 L 2948.000,1314.000 L 2948.000,1311.000 L 2949.000,1310.000 L 2949.000,1306.000 L 2950.000,1305.000 L 2950.000,1302.000 L 2951.000,1301.000 L 2951.000,1296.000 L 2952.000,1295.000 L 2952.000,1292.000 L 2953.000,1291.000 L 2953.000,1286.000 L 2954.000,1285.000 L 2955.000,1275.000 L 2956.000,1274.000 L 2957.000,1264.000 L 2958.000,1263.000 L 2958.000,1258.000 L 2959.000,1257.000 L 2959.000,1251.000 L 2960.000,1250.000 L 2960.000,1244.000 L 2961.000,1243.000 L 2961.000,1237.000 L 2962.000,1236.000 L 2962.000,1230.000 L 2963.000,1229.000 L 2963.000,1222.000 L 2964.000,1221.000 L 2964.000,1214.000 L 2965.000,1213.000 L 2965.000,1206.000 L 2966.000,1205.000 L 2967.000,1187.000 L 2968.000,1186.000 L 2968.000,1176.000 L 2969.000,1175.000 L 2969.000,1163.000 L 2970.000,1162.000 L 2970.000,1147.000 L 2971.000,1146.000 L 2971.000,1126.000 L 2972.000,1125.000 L 2971.000,1124.000 A 52.331 52.331 0 0 1 2971.000 1049.000 L 2971.000,1028.000 L 2970.000,1027.000 L 2969.000,999.000 L 2968.000,998.000 L 2968.000,988.000 L 2967.000,987.000 L 2967.000,979.000 L 2966.000,978.000 L 2966.000,970.000 L 2965.000,969.000 L 2965.000,961.000 L 2964.000,960.000 L 2964.000,953.000 L 2963.000,952.000 L 2963.000,946.000 L 2962.000,945.000 L 2962.000,938.000 L 2961.000,937.000 L 2961.000,931.000 L 2960.000,930.000 L 2960.000,925.000 L 2959.000,924.000 L 2959.000,918.000 L 2958.000,917.000 L 2957.000,906.000 L 2956.000,905.000 L 2956.000,901.000 L 2955.000,900.000 L 2955.000,895.000 L 2954.000,894.000 L 2954.000,890.000 L 2953.000,889.000 L 2953.000,884.000 L 2952.000,883.000 L 2951.000,874.000 L 2950.000,873.000 L 2949.000,865.000 L 2948.000,864.000 L 2948.000,861.000 L 2947.000,860.000 L 2947.000,856.000 L 2946.000,855.000 L 2946.000,852.000 L 2945.000,851.000 L 2945.000,848.000 L 2944.000,847.000 L 2944.000,843.000 L 2943.000,842.000 L 2943.000,839.000 L 2942.000,838.000 L 2942.000,835.000 L 2941.000,834.000 L 2941.000,831.000 L 2940.000,830.000 L 2940.000,827.000 L 2939.000,826.000 L 2939.000,823.000 A 11.844 11.844 0 0 1 2935.000 811.000 L 2934.000,804.000 A 10.710 10.710 0 0 1 2930.000 793.000 L 2930.000,790.000 L 2929.000,789.000 L 2929.000,787.000 L 2928.000,786.000 A 6.024 6.024 0 0 0 2926.000 777.000 L 2925.000,776.000 L 2925.000,774.000 L 2924.000,773.000 A 6.024 6.024 0 0 0 2922.000 764.000 L 2921.000,763.000 L 2921.000,761.000 L 2920.000,760.000 L 2920.000,758.000 L 2919.000,757.000 L 2919.000,755.000 L 2918.000,754.000 L 2918.000,752.000 L 2917.000,751.000 L 2917.000,749.000 L 2916.000,748.000 L 2916.000,746.000 A 11.787 11.787 0 0 1 2911.000 734.000 L 2910.000,729.000 L 2908.000,726.000 L 2907.000,721.000 L 2905.000,718.000 L 2904.000,713.000 L 2902.000,710.000 A 18.231 18.231 0 0 1 2897.000 697.000 L 2897.000,695.000 L 2895.000,692.000 L 2895.000,690.000 L 2893.000,687.000 L 2893.000,685.000 L 2890.000,680.000 L 2890.000,678.000 L 2887.000,673.000 L 2887.000,671.000 L 2884.000,666.000 L 2884.000,664.000 L 2880.000,657.000 L 2880.000,655.000 L 2875.000,646.000 A 81.282 81.282 0 0 1 2847.000 590.000 L 2842.000,579.000 L 2840.000,577.000 L 2833.000,563.000 L 2831.000,561.000 L 2830.000,558.000 L 2828.000,556.000 L 2827.000,553.000 L 2822.000,546.000 L 2820.000,541.000 L 2816.000,536.000 L 2815.000,533.000 L 2811.000,528.000 L 2810.000,525.000 L 2804.000,517.000 A 11.168 11.168 0 0 1 2799.000 509.000 L 2799.000,508.000 L 2797.000,506.000 A 18.213 18.213 0 0 1 2788.000 493.000 L 2788.000,492.000 L 2786.000,490.000 A 18.213 18.213 0 0 1 2777.000 477.000 L 2775.000,473.000 L 2766.000,462.000 A 20.177 20.177 0 0 0 2757.000 449.000 L 2750.000,441.000 L 2750.000,440.000 L 2743.000,432.000 L 2743.000,431.000 L 2739.000,427.000 L 2739.000,426.000 L 2735.000,422.000 L 2735.000,421.000 L 2730.000,416.000 L 2730.000,415.000 L 2725.000,410.000 L 2725.000,409.000 L 2720.000,404.000 L 2720.000,403.000 L 2713.000,396.000 L 2713.000,395.000 L 2706.000,388.000 L 2706.000,387.000 L 2699.000,380.000 L 2699.000,379.000 L 2684.000,364.000 A 42.503 42.503 0 0 1 2641.000 321.000 L 2628.000,308.000 L 2627.000,308.000 A 8.679 8.679 0 0 0 2619.000 300.000 L 2618.000,300.000 L 2611.000,293.000 L 2610.000,293.000 L 2604.000,287.000 L 2603.000,287.000 L 2598.000,282.000 L 2597.000,282.000 L 2585.000,271.000 L 2584.000,271.000 L 2575.000,263.000 L 2574.000,263.000 L 2566.000,256.000 L 2565.000,256.000 L 2562.000,253.000 L 2561.000,253.000 A 40.166 40.166 0 0 1 2545.000 241.000 L 2541.000,237.000 A 24.833 24.833 0 0 1 2527.000 227.000 A 28.039 28.039 0 0 1 2514.000 218.000 L 2507.000,214.000 L 2504.000,211.000 A 46.155 46.155 0 0 0 2484.000 198.000 L 2481.000,197.000 L 2476.000,193.000 L 2473.000,192.000 L 2468.000,188.000 L 2463.000,186.000 L 2461.000,184.000 L 2458.000,183.000 L 2456.000,181.000 L 2453.000,180.000 A 40.989 40.989 0 0 0 2430.000 166.000 L 2423.000,163.000 L 2421.000,161.000 L 2408.000,155.000 A 57.199 57.199 0 0 1 2368.000 135.000 L 2357.000,129.000 L 2355.000,129.000 L 2348.000,125.000 L 2346.000,125.000 L 2330.000,117.000 L 2328.000,117.000 L 2325.000,115.000 L 2323.000,115.000 L 2320.000,113.000 L 2318.000,113.000 L 2315.000,111.000 L 2313.000,111.000 L 2310.000,109.000 A 15.048 15.048 0 0 1 2295.000 104.000 L 2287.000,100.000 A 11.286 11.286 0 0 1 2276.000 96.000 L 2274.000,96.000 A 11.787 11.787 0 0 0 2262.000 91.000 L 2259.000,91.000 L 2256.000,89.000 A 6.024 6.024 0 0 1 2247.000 87.000 L 2246.000,86.000 L 2244.000,86.000 L 2243.000,85.000 L 2241.000,85.000 L 2240.000,84.000 L 2238.000,84.000 L 2237.000,83.000 L 2235.000,83.000 L 2234.000,82.000 L 2232.000,82.000 L 2231.000,81.000 A 6.024 6.024 0 0 1 2222.000 79.000 A 10.710 10.710 0 0 0 2211.000 75.000 L 2208.000,75.000 L 2204.000,73.000 L 2197.000,72.000 A 13.029 13.029 0 0 1 2186.000 69.000 A 11.844 11.844 0 0 0 2174.000 65.000 L 2171.000,65.000 L 2170.000,64.000 L 2167.000,64.000 L 2166.000,63.000 L 2162.000,63.000 L 2161.000,62.000 L 2158.000,62.000 L 2157.000,61.000 L 2154.000,61.000 L 2153.000,60.000 L 2149.000,60.000 L 2148.000,59.000 L 2145.000,59.000 L 2144.000,58.000 L 2140.000,58.000 L 2139.000,57.000 L 2135.000,57.000 L 2134.000,56.000 L 2130.000,56.000 L 2129.000,55.000 L 2120.000,54.000 L 2119.000,53.000 L 2114.000,53.000 L 2113.000,52.000 L 2109.000,52.000 L 2108.000,51.000 L 2103.000,51.000 L 2102.000,50.000 L 2097.000,50.000 L 2096.000,49.000 L 2092.000,49.000 L 2091.000,48.000 L 2085.000,48.000 L 2084.000,47.000 L 2079.000,47.000 L 2078.000,46.000 L 2073.000,46.000 L 2072.000,45.000 L 2066.000,45.000 L 2065.000,44.000 L 2059.000,44.000 L 2058.000,43.000 L 2051.000,43.000 L 2050.000,42.000 L 2042.000,42.000 L 2041.000,41.000 L 2033.000,41.000 L 2032.000,40.000 L 2023.000,40.000 L 2022.000,39.000 L 2000.000,38.000 L 1999.000,37.000 L 1985.000,37.000 L 1984.000,36.000 L 1966.000,36.000 A 63.644 63.644 0 0 1 1875.000 36.000 L 1874.000,35.000 " fill="none" stroke="black"/>
<path d="M 1880.000,2113.000 L 1881.000,2112.000 L 1883.000,2113.000 L 1882.000,2114.000 L 1880.000,2113.000 " fill="none" stroke="black"/>
<path d="M 1909.000,1465.000 L 1930.000,1465.000 L 1931.000,1466.000 L 1939.000,1466.000 L 1940.000,1467.000 L 1945.000,1467.000 L 1946.000,1468.000 L 1949.000,1468.000 A 7.295 7.295 0 0 0 1958.000 1471.000 A 7.345 7.345 0 0 1 1969.000 1474.000 L 1972.000,1476.000 A 135.455 135.455 0 0 0 2020.000 1692.000 A 135.619 135.619 0 0 0 1801.000 1667.000 L 1794.000,1653.000 L 1794.000,1651.000 A 8.373 8.373 0 0 0 1791.000 1643.000 L 1790.000,1642.000 A 8.488 8.488 0 0 0 1788.000 1632.000 L 1787.000,1631.000 L 1787.000,1628.000 L 1786.000,1627.000 L 1786.000,1622.000 L 1785.000,1621.000 L 1785.000,1614.000 A 18.398 18.398 0 0 0 1785.000 1587.000 L 1785.000,1580.000 L 1786.000,1579.000 L 1786.000,1575.000 L 1787.000,1574.000 L 1787.000,1570.000 L 1788.000,1569.000 A 27.230 27.230 0 0 0 1793.000 1553.000 A 135.220 135.220 0 0 0 1909.000 1465.000 " fill="none" stroke="black"/>
<path d="M 1935.000,60.000 L 1936.000,61.000 L 1955.000,61.000 L 1956.000,62.000 L 1967.000,62.000 L 1968.000,63.000 L 1986.000,64.000 L 1987.000,65.000 L 1999.000,66.000 L 2000.000,67.000 L 2011.000,68.000 L 2012.000,69.000 L 2016.000,69.000 L 2017.000,70.000 L 2026.000,71.000 L 2027.000,72.000 L 2030.000,72.000 L 2031.000,73.000 L 2035.000,73.000 L 2036.000,74.000 L 2039.000,74.000 L 2040.000,75.000 L 2043.000,75.000 L 2044.000,76.000 L 2047.000,76.000 L 2048.000,77.000 L 2051.000,77.000 A 11.844 11.844 0 0 0 2063.000 81.000 L 2066.000,81.000 L 2067.000,82.000 L 2069.000,82.000 L 2070.000,83.000 L 2072.000,83.000 L 2073.000,84.000 L 2075.000,84.000 L 2076.000,85.000 L 2078.000,85.000 L 2079.000,86.000 L 2081.000,86.000 L 2082.000,87.000 L 2084.000,87.000 A 11.787 11.787 0 0 0 2096.000 92.000 L 2101.000,93.000 L 2104.000,95.000 A 18.231 18.231 0 0 0 2117.000 100.000 L 2119.000,100.000 L 2124.000,103.000 L 2126.000,103.000 L 2141.000,111.000 A 30.108 30.108 0 0 0 2163.000 122.000 L 2168.000,124.000 L 2170.000,126.000 L 2182.000,132.000 L 2184.000,134.000 L 2187.000,135.000 L 2192.000,139.000 A 11.168 11.168 0 0 0 2200.000 144.000 A 18.213 18.213 0 0 0 2213.000 153.000 A 27.399 27.399 0 0 0 2228.000 163.000 L 2231.000,166.000 L 2232.000,166.000 L 2236.000,170.000 L 2237.000,170.000 L 2240.000,173.000 L 2241.000,173.000 L 2252.000,183.000 L 2253.000,183.000 A 512.541 512.541 0 0 0 2419.000 455.000 L 2420.000,456.000 L 2420.000,460.000 L 2421.000,461.000 L 2421.000,465.000 L 2422.000,466.000 L 2422.000,469.000 L 2423.000,470.000 L 2423.000,474.000 L 2424.000,475.000 L 2424.000,480.000 L 2425.000,481.000 L 2425.000,485.000 L 2426.000,486.000 L 2427.000,497.000 L 2428.000,498.000 L 2428.000,504.000 L 2429.000,505.000 L 2429.000,511.000 L 2430.000,512.000 L 2430.000,520.000 L 2431.000,521.000 L 2431.000,530.000 L 2432.000,531.000 L 2431.000,532.000 L 2432.000,533.000 L 2432.000,545.000 A 39.604 39.604 0 0 0 2432.000 602.000 L 2432.000,616.000 L 2431.000,617.000 L 2431.000,627.000 L 2430.000,628.000 L 2430.000,636.000 L 2429.000,637.000 L 2428.000,650.000 L 2427.000,651.000 L 2427.000,656.000 L 2426.000,657.000 L 2426.000,662.000 L 2425.000,663.000 L 2425.000,668.000 L 2424.000,669.000 L 2424.000,673.000 L 2423.000,674.000 L 2423.000,678.000 L 2422.000,679.000 L 2421.000,688.000 L 2420.000,689.000 L 2420.000,692.000 L 2419.000,693.000 L 2419.000,696.000 L 2418.000,697.000 L 2418.000,700.000 A 11.844 11.844 0 0 0 2414.000 712.000 A 12.674 12.674 0 0 0 2411.000 723.000 L 2411.000,725.000 L 2410.000,726.000 L 2410.000,728.000 L 2409.000,729.000 L 2409.000,731.000 L 2408.000,732.000 L 2408.000,734.000 L 2407.000,735.000 L 2407.000,737.000 L 2406.000,738.000 L 2406.000,740.000 L 2405.000,741.000 L 2405.000,743.000 A 11.787 11.787 0 0 0 2400.000 755.000 A 33.324 33.324 0 0 0 2392.000 775.000 L 2392.000,777.000 L 2378.000,805.000 L 2378.000,807.000 L 2376.000,809.000 L 2371.000,820.000 L 2369.000,822.000 L 2366.000,829.000 L 2364.000,831.000 L 2363.000,834.000 L 2361.000,836.000 L 2359.000,841.000 L 2355.000,846.000 A 11.168 11.168 0 0 0 2350.000 854.000 A 18.213 18.213 0 0 0 2341.000 867.000 A 27.399 27.399 0 0 0 2331.000 882.000 L 2328.000,885.000 L 2328.000,886.000 L 2325.000,889.000 L 2325.000,890.000 L 2317.000,899.000 L 2317.000,900.000 L 2311.000,906.000 L 2311.000,907.000 L 2305.000,913.000 L 2305.000,914.000 L 2297.000,922.000 A 28.504 28.504 0 0 0 2268.000 951.000 A 503.239 503.239 0 0 0 2037.000 1074.000 L 2036.000,1075.000 L 2033.000,1075.000 L 2032.000,1076.000 L 2028.000,1076.000 L 2027.000,1077.000 L 2023.000,1077.000 L 2022.000,1078.000 L 2018.000,1078.000 L 2017.000,1079.000 L 2013.000,1079.000 L 2012.000,1080.000 L 2008.000,1080.000 L 2007.000,1081.000 L 2002.000,1081.000 L 2001.000,1082.000 L 1988.000,1083.000 L 1987.000,1084.000 L 1971.000,1085.000 L 1970.000,1086.000 L 1959.000,1086.000 L 1958.000,1087.000 L 1943.000,1087.000 L 1942.000,1088.000 L 1941.000,1087.000 L 1940.000,1088.000 L 1898.000,1088.000 L 1897.000,1089.000 L 1896.000,1088.000 L 1895.000,1089.000 L 1880.000,1089.000 L 1879.000,1090.000 L 1869.000,1090.000 L 1868.000,1091.000 L 1851.000,1092.000 L 1850.000,1093.000 L 1844.000,1093.000 L 1843.000,1094.000 L 1838.000,1094.000 L 1837.000,1095.000 L 1832.000,1095.000 L 1831.000,1096.000 L 1826.000,1096.000 L 1825.000,1097.000 L 1816.000,1098.000 L 1815.000,1099.000 L 1812.000,1099.000 L 1811.000,1100.000 L 1808.000,1100.000 L 1807.000,1101.000 L 1803.000,1101.000 L 1802.000,1102.000 L 1799.000,1102.000 L 1798.000,1103.000 L 1795.000,1103.000 L 1794.000,1104.000 L 1791.000,1104.000 L 1790.000,1105.000 L 1787.000,1105.000 L 1786.000,1106.000 A 24.849 24.849 0 0 1 1772.000 1110.000 L 1769.000,1110.000 L 1768.000,1111.000 L 1766.000,1111.000 L 1765.000,1112.000 L 1763.000,1112.000 L 1762.000,1113.000 L 1760.000,1113.000 L 1759.000,1114.000 L 1757.000,1114.000 L 1756.000,1115.000 L 1754.000,1115.000 A 32.762 32.762 0 0 1 1737.000 1122.000 L 1735.000,1122.000 L 1729.000,1125.000 L 1727.000,1125.000 L 1724.000,1127.000 L 1722.000,1127.000 L 1710.000,1133.000 A 57.199 57.199 0 0 1 1670.000 1153.000 L 1665.000,1155.000 L 1663.000,1157.000 L 1660.000,1158.000 L 1658.000,1160.000 L 1655.000,1161.000 L 1653.000,1163.000 L 1650.000,1164.000 L 1645.000,1168.000 L 1642.000,1169.000 A 13.447 13.447 0 0 1 1630.000 1178.000 A 18.213 18.213 0 0 1 1617.000 1187.000 L 1616.000,1187.000 L 1613.000,1190.000 L 1612.000,1190.000 L 1609.000,1193.000 L 1608.000,1193.000 L 1605.000,1196.000 L 1604.000,1196.000 L 1595.000,1204.000 L 1594.000,1204.000 L 1581.000,1216.000 L 1580.000,1216.000 L 1570.000,1226.000 A 510.034 510.034 0 0 1 1423.000 1471.000 L 1423.000,1474.000 L 1422.000,1475.000 L 1422.000,1479.000 L 1421.000,1480.000 L 1421.000,1483.000 L 1420.000,1484.000 L 1420.000,1487.000 L 1419.000,1488.000 L 1419.000,1492.000 L 1418.000,1493.000 L 1418.000,1496.000 L 1417.000,1497.000 L 1417.000,1502.000 L 1416.000,1503.000 L 1416.000,1507.000 L 1415.000,1508.000 L 1415.000,1513.000 L 1414.000,1514.000 L 1414.000,1519.000 L 1413.000,1520.000 L 1413.000,1525.000 L 1412.000,1526.000 L 1412.000,1532.000 L 1411.000,1533.000 L 1411.000,1540.000 L 1410.000,1541.000 L 1409.000,1559.000 L 1408.000,1560.000 L 1408.000,1575.000 A 34.655 34.655 0 0 1 1408.000 1625.000 L 1407.000,1626.000 L 1408.000,1627.000 L 1408.000,1640.000 L 1409.000,1641.000 L 1409.000,1651.000 L 1410.000,1652.000 L 1410.000,1660.000 L 1411.000,1661.000 L 1411.000,1668.000 L 1412.000,1669.000 L 1413.000,1682.000 L 1414.000,1683.000 L 1414.000,1688.000 L 1415.000,1689.000 L 1416.000,1699.000 L 1417.000,1700.000 L 1418.000,1709.000 L 1419.000,1710.000 L 1419.000,1713.000 L 1420.000,1714.000 L 1420.000,1718.000 L 1421.000,1719.000 L 1421.000,1722.000 L 1422.000,1723.000 L 1422.000,1726.000 A 11.844 11.844 0 0 1 1426.000 1738.000 L 1426.000,1741.000 A 10.158 10.158 0 0 1 1429.000 1751.000 L 1430.000,1752.000 L 1430.000,1754.000 L 1431.000,1755.000 L 1431.000,1757.000 L 1432.000,1758.000 L 1432.000,1760.000 L 1433.000,1761.000 L 1433.000,1763.000 L 1434.000,1764.000 L 1434.000,1766.000 L 1435.000,1767.000 L 1435.000,1769.000 A 11.787 11.787 0 0 1 1440.000 1781.000 A 18.231 18.231 0 0 1 1445.000 1794.000 L 1445.000,1796.000 L 1448.000,1801.000 L 1448.000,1803.000 L 1458.000,1823.000 A 18.070 18.070 0 0 1 1465.000 1837.000 L 1470.000,1848.000 L 1472.000,1850.000 L 1474.000,1855.000 A 25.191 25.191 0 0 1 1485.000 1872.000 A 11.168 11.168 0 0 1 1490.000 1880.000 L 1490.000,1881.000 L 1492.000,1883.000 L 1492.000,1884.000 L 1494.000,1886.000 A 10.915 10.915 0 0 0 1500.000 1896.000 L 1506.000,1903.000 A 22.113 22.113 0 0 0 1515.000 1915.000 L 1515.000,1916.000 L 1518.000,1919.000 L 1518.000,1920.000 L 1533.000,1937.000 L 1533.000,1938.000 L 1542.000,1947.000 A 30.504 30.504 0 0 1 1573.000 1978.000 L 1582.000,1987.000 L 1583.000,1987.000 L 1589.000,1993.000 L 1590.000,1993.000 L 1594.000,1997.000 L 1595.000,1997.000 A 505.472 505.472 0 0 1 1830.000 2105.000 L 1831.000,2106.000 L 1836.000,2106.000 L 1837.000,2107.000 L 1842.000,2107.000 L 1843.000,2108.000 L 1850.000,2108.000 L 1851.000,2109.000 L 1857.000,2109.000 L 1858.000,2110.000 L 1867.000,2110.000 L 1868.000,2111.000 L 1879.000,2111.000 L 1880.000,2112.000 L 1879.000,2114.000 L 1873.000,2114.000 L 1872.000,2113.000 L 1871.000,2114.000 L 1870.000,2113.000 L 1855.000,2113.000 L 1854.000,2112.000 L 1842.000,2112.000 L 1841.000,2111.000 L 1830.000,2111.000 L 1829.000,2110.000 L 1820.000,2110.000 L 1819.000,2109.000 L 1800.000,2108.000 L 1799.000,2107.000 L 1792.000,2107.000 L 1791.000,2106.000 L 1784.000,2106.000 L 1783.000,2105.000 L 1777.000,2105.000 L 1776.000,2104.000 L 1763.000,2103.000 L 1762.000,2102.000 L 1750.000,2101.000 L 1749.000,2100.000 L 1745.000,2100.000 L 1744.000,2099.000 L 1738.000,2099.000 L 1737.000,2098.000 L 1733.000,2098.000 L 1732.000,2097.000 L 1728.000,2097.000 L 1727.000,2096.000 L 1722.000,2096.000 L 1721.000,2095.000 L 1717.000,2095.000 L 1716.000,2094.000 L 1708.000,2093.000 L 1707.000,2092.000 L 1704.000,2092.000 L 1703.000,2091.000 L 1699.000,2091.000 L 1698.000,2090.000 L 1695.000,2090.000 L 1694.000,2089.000 L 1690.000,2089.000 L 1689.000,2088.000 L 1686.000,2088.000 L 1685.000,2087.000 L 1682.000,2087.000 L 1681.000,2086.000 L 1677.000,2086.000 L 1676.000,2085.000 L 1673.000,2085.000 L 1672.000,2084.000 L 1669.000,2084.000 L 1668.000,2083.000 L 1665.000,2083.000 L 1664.000,2082.000 L 1661.000,2082.000 A 11.844 11.844 0 0 0 1649.000 2078.000 A 24.849 24.849 0 0 0 1635.000 2074.000 L 1632.000,2074.000 L 1631.000,2073.000 L 1629.000,2073.000 L 1628.000,2072.000 A 6.024 6.024 0 0 1 1619.000 2070.000 L 1618.000,2069.000 A 6.024 6.024 0 0 1 1609.000 2067.000 L 1608.000,2066.000 L 1606.000,2066.000 L 1605.000,2065.000 L 1603.000,2065.000 L 1602.000,2064.000 L 1600.000,2064.000 L 1599.000,2063.000 L 1597.000,2063.000 L 1596.000,2062.000 L 1594.000,2062.000 L 1593.000,2061.000 L 1591.000,2061.000 L 1590.000,2060.000 L 1588.000,2060.000 A 11.787 11.787 0 0 0 1576.000 2055.000 A 12.234 12.234 0 0 1 1563.000 2051.000 L 1557.000,2048.000 L 1552.000,2047.000 L 1549.000,2045.000 L 1544.000,2044.000 L 1534.000,2039.000 A 22.922 22.922 0 0 1 1513.000 2031.000 L 1508.000,2028.000 L 1506.000,2028.000 L 1501.000,2025.000 L 1499.000,2025.000 L 1490.000,2020.000 A 78.272 78.272 0 0 0 1436.000 1993.000 L 1425.000,1988.000 L 1423.000,1986.000 L 1409.000,1979.000 A 30.527 30.527 0 0 0 1390.000 1967.000 L 1385.000,1965.000 L 1377.000,1959.000 L 1374.000,1958.000 L 1363.000,1950.000 A 11.168 11.168 0 0 0 1355.000 1945.000 L 1354.000,1945.000 L 1352.000,1943.000 L 1351.000,1943.000 L 1349.000,1941.000 A 18.213 18.213 0 0 0 1336.000 1932.000 A 10.915 10.915 0 0 1 1326.000 1926.000 L 1319.000,1920.000 A 21.721 21.721 0 0 0 1308.000 1912.000 L 1307.000,1912.000 L 1304.000,1909.000 L 1303.000,1909.000 L 1300.000,1906.000 L 1299.000,1906.000 L 1295.000,1902.000 L 1294.000,1902.000 L 1291.000,1899.000 L 1290.000,1899.000 L 1287.000,1896.000 L 1286.000,1896.000 L 1272.000,1884.000 L 1271.000,1884.000 L 1253.000,1868.000 L 1252.000,1868.000 L 1246.000,1862.000 L 1245.000,1862.000 A 20.609 20.609 0 0 0 1227.000 1845.000 L 1226.000,1845.000 A 13.833 13.833 0 0 0 1213.000 1832.000 A 39.503 39.503 0 0 0 1173.000 1792.000 L 1161.000,1780.000 L 1161.000,1779.000 L 1138.000,1754.000 L 1138.000,1753.000 L 1134.000,1749.000 L 1134.000,1748.000 L 1128.000,1742.000 L 1128.000,1741.000 L 1124.000,1737.000 L 1124.000,1736.000 L 1120.000,1732.000 L 1120.000,1731.000 L 1116.000,1727.000 L 1116.000,1726.000 L 1111.000,1721.000 L 1111.000,1720.000 L 1108.000,1717.000 L 1108.000,1716.000 L 1105.000,1713.000 L 1105.000,1712.000 A 40.166 40.166 0 0 0 1093.000 1696.000 L 1090.000,1693.000 A 18.264 18.264 0 0 0 1082.000 1681.000 L 1079.000,1678.000 L 1079.000,1677.000 L 1077.000,1675.000 L 1077.000,1674.000 L 1075.000,1672.000 L 1075.000,1671.000 L 1073.000,1669.000 A 18.213 18.213 0 0 1 1064.000 1656.000 A 18.252 18.252 0 0 0 1055.000 1641.000 A 15.288 15.288 0 0 1 1046.000 1628.000 A 26.671 26.671 0 0 0 1036.000 1610.000 L 1034.000,1608.000 L 1033.000,1605.000 L 1028.000,1598.000 L 1026.000,1593.000 L 1024.000,1591.000 L 1021.000,1584.000 L 1019.000,1582.000 L 1013.000,1569.000 L 1011.000,1567.000 L 1006.000,1556.000 L 1004.000,1554.000 L 1004.000,1552.000 L 990.000,1525.000 L 990.000,1523.000 L 982.000,1508.000 L 982.000,1506.000 L 979.000,1501.000 L 979.000,1499.000 L 976.000,1494.000 L 976.000,1492.000 L 970.000,1480.000 L 970.000,1478.000 L 968.000,1475.000 L 968.000,1473.000 L 966.000,1470.000 L 966.000,1468.000 L 964.000,1465.000 L 964.000,1463.000 A 33.421 33.421 0 0 0 958.000 1447.000 L 956.000,1444.000 L 955.000,1439.000 L 953.000,1436.000 A 18.325 18.325 0 0 0 948.000 1422.000 L 948.000,1420.000 L 947.000,1419.000 L 947.000,1417.000 L 946.000,1416.000 L 946.000,1414.000 L 945.000,1413.000 L 945.000,1411.000 L 944.000,1410.000 L 944.000,1408.000 L 943.000,1407.000 A 6.024 6.024 0 0 0 941.000 1398.000 L 940.000,1397.000 L 940.000,1395.000 L 939.000,1394.000 A 6.024 6.024 0 0 0 937.000 1385.000 L 936.000,1384.000 A 6.024 6.024 0 0 0 934.000 1375.000 L 933.000,1374.000 A 6.024 6.024 0 0 0 931.000 1365.000 L 929.000,1361.000 L 928.000,1354.000 A 13.029 13.029 0 0 0 925.000 1343.000 L 924.000,1342.000 L 924.000,1339.000 L 923.000,1338.000 L 923.000,1335.000 L 922.000,1334.000 L 922.000,1330.000 L 921.000,1329.000 L 921.000,1326.000 L 920.000,1325.000 L 920.000,1322.000 L 919.000,1321.000 L 919.000,1318.000 L 918.000,1317.000 L 918.000,1313.000 L 917.000,1312.000 L 917.000,1309.000 L 916.000,1308.000 L 915.000,1299.000 L 914.000,1298.000 L 914.000,1295.000 L 913.000,1294.000 L 913.000,1290.000 L 912.000,1289.000 L 912.000,1285.000 L 911.000,1284.000 L 911.000,1280.000 L 910.000,1279.000 L 910.000,1275.000 L 909.000,1274.000 L 909.000,1269.000 L 908.000,1268.000 L 908.000,1263.000 L 907.000,1262.000 L 907.000,1257.000 L 906.000,1256.000 L 906.000,1251.000 L 905.000,1250.000 L 905.000,1245.000 L 904.000,1244.000 L 904.000,1238.000 L 903.000,1237.000 L 903.000,1231.000 L 902.000,1230.000 L 902.000,1223.000 L 901.000,1222.000 L 901.000,1215.000 L 900.000,1214.000 L 900.000,1207.000 L 899.000,1206.000 L 899.000,1198.000 L 898.000,1197.000 L 897.000,1177.000 L 896.000,1176.000 L 896.000,1164.000 L 895.000,1163.000 L 895.000,1149.000 L 894.000,1148.000 L 894.000,1130.000 L 893.000,1129.000 L 894.000,1128.000 A 57.280 57.280 0 0 0 894.000 1046.000 L 893.000,1045.000 L 894.000,1044.000 L 894.000,1026.000 L 895.000,1025.000 L 895.000,1011.000 L 896.000,1010.000 L 896.000,999.000 L 897.000,998.000 L 897.000,988.000 L 898.000,987.000 L 898.000,978.000 L 899.000,977.000 L 899.000,969.000 L 900.000,968.000 L 900.000,961.000 L 901.000,960.000 L 901.000,952.000 L 902.000,951.000 L 902.000,945.000 L 903.000,944.000 L 903.000,938.000 L 904.000,937.000 L 904.000,931.000 L 905.000,930.000 L 905.000,925.000 L 906.000,924.000 L 906.000,918.000 L 907.000,917.000 L 907.000,912.000 L 908.000,911.000 L 908.000,907.000 L 909.000,906.000 L 909.000,901.000 L 910.000,900.000 L 910.000,896.000 L 911.000,895.000 L 911.000,891.000 L 912.000,890.000 L 912.000,886.000 L 913.000,885.000 L 914.000,876.000 L 915.000,875.000 L 915.000,872.000 L 916.000,871.000 L 916.000,867.000 L 917.000,866.000 L 917.000,863.000 L 918.000,862.000 L 918.000,858.000 L 919.000,857.000 L 919.000,854.000 L 920.000,853.000 L 920.000,850.000 L 921.000,849.000 L 921.000,845.000 L 922.000,844.000 L 922.000,841.000 L 923.000,840.000 L 923.000,837.000 L 924.000,836.000 L 924.000,833.000 A 11.844 11.844 0 0 0 928.000 821.000 L 929.000,814.000 A 10.710 10.710 0 0 0 933.000 803.000 L 933.000,800.000 L 934.000,799.000 A 6.024 6.024 0 0 1 936.000 790.000 L 937.000,789.000 A 6.024 6.024 0 0 1 939.000 780.000 L 940.000,779.000 L 940.000,777.000 L 941.000,776.000 L 941.000,774.000 L 942.000,773.000 L 942.000,771.000 L 943.000,770.000 L 943.000,768.000 L 944.000,767.000 A 6.024 6.024 0 0 1 946.000 758.000 L 948.000,755.000 L 950.000,747.000 L 952.000,744.000 A 12.234 12.234 0 0 1 956.000 731.000 L 959.000,725.000 L 960.000,720.000 L 962.000,717.000 A 18.231 18.231 0 0 0 967.000 704.000 L 967.000,702.000 L 970.000,697.000 L 970.000,695.000 L 973.000,690.000 L 973.000,688.000 L 978.000,678.000 L 978.000,676.000 L 981.000,671.000 L 981.000,669.000 L 986.000,660.000 L 986.000,658.000 L 999.000,633.000 A 21.079 21.079 0 0 0 1007.000 617.000 L 1014.000,602.000 A 50.251 50.251 0 0 0 1030.000 575.000 L 1032.000,570.000 A 37.127 37.127 0 0 0 1044.000 550.000 L 1048.000,545.000 L 1049.000,542.000 L 1053.000,537.000 A 11.168 11.168 0 0 0 1058.000 529.000 L 1058.000,528.000 L 1060.000,526.000 L 1060.000,525.000 L 1062.000,523.000 L 1062.000,522.000 L 1064.000,520.000 L 1064.000,519.000 L 1066.000,517.000 L 1066.000,516.000 L 1068.000,514.000 A 18.213 18.213 0 0 0 1077.000 501.000 A 52.686 52.686 0 0 0 1092.000 479.000 L 1100.000,469.000 L 1100.000,468.000 L 1111.000,455.000 L 1111.000,454.000 L 1114.000,451.000 L 1114.000,450.000 L 1118.000,446.000 L 1118.000,445.000 L 1122.000,441.000 L 1122.000,440.000 L 1127.000,435.000 L 1127.000,434.000 L 1132.000,429.000 L 1132.000,428.000 L 1137.000,423.000 L 1137.000,422.000 L 1142.000,417.000 L 1142.000,416.000 L 1151.000,407.000 L 1151.000,406.000 L 1158.000,399.000 L 1158.000,398.000 L 1172.000,384.000 A 44.503 44.503 0 0 0 1217.000 339.000 L 1230.000,326.000 L 1231.000,326.000 L 1248.000,310.000 L 1249.000,310.000 L 1267.000,294.000 L 1268.000,294.000 L 1287.000,278.000 L 1288.000,278.000 L 1291.000,275.000 L 1292.000,275.000 L 1296.000,271.000 A 42.971 42.971 0 0 0 1320.000 254.000 L 1323.000,251.000 A 13.424 13.424 0 0 1 1333.000 244.000 A 17.458 17.458 0 0 0 1344.000 237.000 L 1355.000,229.000 L 1358.000,228.000 L 1372.000,218.000 L 1375.000,217.000 L 1380.000,213.000 L 1383.000,212.000 L 1385.000,210.000 L 1388.000,209.000 L 1390.000,207.000 L 1393.000,206.000 L 1395.000,204.000 L 1398.000,203.000 L 1400.000,201.000 A 34.817 34.817 0 0 0 1419.000 191.000 L 1421.000,189.000 L 1441.000,179.000 A 57.199 57.199 0 0 0 1481.000 159.000 L 1494.000,152.000 L 1496.000,152.000 L 1503.000,148.000 L 1505.000,148.000 L 1510.000,145.000 L 1512.000,145.000 L 1521.000,140.000 L 1523.000,140.000 L 1526.000,138.000 L 1528.000,138.000 L 1531.000,136.000 L 1533.000,136.000 L 1536.000,134.000 L 1538.000,134.000 L 1546.000,130.000 A 12.070 12.070 0 0 0 1559.000 126.000 A 9.416 9.416 0 0 1 1570.000 121.000 A 18.325 18.325 0 0 0 1584.000 116.000 L 1586.000,116.000 L 1587.000,115.000 A 6.024 6.024 0 0 0 1596.000 113.000 A 8.290 8.290 0 0 0 1605.000 110.000 L 1606.000,109.000 L 1608.000,109.000 L 1609.000,108.000 L 1611.000,108.000 L 1612.000,107.000 L 1614.000,107.000 L 1615.000,106.000 L 1617.000,106.000 L 1618.000,105.000 L 1620.000,105.000 L 1621.000,104.000 A 6.024 6.024 0 0 0 1630.000 102.000 L 1634.000,100.000 L 1637.000,100.000 A 13.029 13.029 0 0 0 1648.000 97.000 A 11.844 11.844 0 0 1 1660.000 93.000 L 1663.000,93.000 L 1664.000,92.000 L 1667.000,92.000 L 1668.000,91.000 L 1671.000,91.000 L 1672.000,90.000 L 1675.000,90.000 L 1676.000,89.000 L 1679.000,89.000 L 1680.000,88.000 L 1684.000,88.000 L 1685.000,87.000 L 1688.000,87.000 L 1689.000,86.000 L 1692.000,86.000 L 1693.000,85.000 L 1696.000,85.000 L 1697.000,84.000 L 1701.000,84.000 L 1702.000,83.000 L 1706.000,83.000 L 1707.000,82.000 L 1710.000,82.000 L 1711.000,81.000 L 1715.000,81.000 L 1716.000,80.000 L 1720.000,80.000 L 1721.000,79.000 L 1725.000,79.000 L 1726.000,78.000 L 1731.000,78.000 L 1732.000,77.000 L 1736.000,77.000 L 1737.000,76.000 L 1742.000,76.000 L 1743.000,75.000 L 1748.000,75.000 L 1749.000,74.000 L 1754.000,74.000 L 1755.000,73.000 L 1761.000,73.000 L 1762.000,72.000 L 1767.000,72.000 L 1768.000,71.000 L 1774.000,71.000 L 1775.000,70.000 L 1789.000,69.000 L 1790.000,68.000 L 1806.000,67.000 L 1807.000,66.000 L 1814.000,66.000 L 1815.000,65.000 L 1825.000,65.000 L 1826.000,64.000 L 1837.000,64.000 L 1838.000,63.000 L 1851.000,63.000 L 1852.000,62.000 L 1867.000,62.000 L 1868.000,61.000 L 1869.000,62.000 L 1870.000,61.000 L 1894.000,61.000 L 1895.000,60.000 L 1896.000,61.000 L 1898.000,60.000 L 1900.000,61.000 A 23.345 23.345 0 0 0 1934.000 61.000 L 1935.000,60.000 " fill="none" stroke="black"/>
<path d="M 1905.000,440.000 L 1904.000,441.000 L 1898.000,441.000 L 1897.000,442.000 L 1892.000,442.000 L 1891.000,443.000 L 1888.000,443.000 A 9.394 9.394 0 0 1 1877.000 447.000 L 1875.000,447.000 A 134.411 134.411 0 0 1 1818.000 662.000 A 134.293 134.293 0 0 1 2034.000 644.000 A 24.088 24.088 0 0 1 2043.000 626.000 A 12.362 12.362 0 0 1 2047.000 616.000 A 13.029 13.029 0 0 1 2050.000 605.000 L 2051.000,604.000 L 2051.000,600.000 L 2052.000,599.000 L 2052.000,594.000 L 2053.000,593.000 L 2053.000,585.000 A 14.866 14.866 0 0 1 2053.000 563.000 A 31.557 31.557 0 0 1 2050.000 543.000 L 2050.000,540.000 L 2048.000,536.000 A 20.272 20.272 0 0 1 2043.000 522.000 A 21.079 21.079 0 0 1 2035.000 506.000 L 2034.000,503.000 A 135.838 135.838 0 0 1 1905.000 440.000 " fill="none" stroke="black"/>
</svg>
