<svg xmlns="http://www.w3.org/2000/svg" viewBox="0 0 500 500">
<path d="M 130.000,1.000 A 153.601 153.601 0 0 0 103.000 298.000 A 153.436 153.436 0 0 0 222.000 16.000 A 153.186 153.186 0 0 0 130.000 1.000 " fill="none" stroke="black"/>
<path d="M 129.000,5.000 A 149.577 149.577 0 0 1 204.000 293.000 A 149.186 149.186 0 0 1 85.000 20.000 A 117.945 117.945 0 0 1 129.000 5.000 " fill="none" stroke="black"/>
<path d="M 139.000,24.000 A 128.844 128.844 0 1 0 197.000 273.000 A 128.956 128.956 0 0 0 139.000 24.000 " fill="none" stroke="black"/>
<path d="M 138.000,28.000 A 125.096 125.096 0 1 1 109.000 270.000 A 125.377 125.377 0 0 1 138.000 28.000 " fill="none" stroke="black"/>
<path d="M 139.000,48.000 A 104.702 104.702 0 1 0 246.000 196.000 A 104.646 104.646 0 0 0 139.000 48.000 " fill="none" stroke="black"/>
<path d="M 132.000,53.000 A 100.575 100.575 0 1 1 62.000 198.000 A 100.752 100.752 0 0 1 132.000 53.000 " fill="none" stroke="black"/>
<path d="M 140.000,71.000 A 80.864 80.864 0 1 0 197.000 85.000 A 82.739 82.739 0 0 0 140.000 71.000 " fill="none" stroke="black"/>
<path d="M 140.000,75.000 A 76.346 76.346 0 1 1 112.000 86.000 A 52.779 52.779 0 0 1 140.000 75.000 " fill="none" stroke="black"/>
<path d="M 141.000,95.000 A 56.303 56.303 0 1 0 158.000 95.000 L 141.000,95.000 " fill="none" stroke="black"/>
<path d="M 141.000,99.000 A 42.584 42.584 0 1 1 140.000 100.000 L 141.000,99.000 " fill="none" stroke="black"/>
<path d="M 139.000,120.000 A 30.161 30.161 0 1 0 142.000 120.000 L 139.000,120.000 " fill="none" stroke="black"/>
<path d="M 143.000,123.000 A 23.547 23.547 0 1 1 142.000 124.000 L 143.000,123.000 " fill="none" stroke="black"/>
</svg>
